#!OML:ASF F:\VICON\USERDATA\INSTALL\rory3\rory3.ASF
:FULLY-SPECIFIED
:DEGREES
19
root -0.6419760317479691 17.68320093248506 -13.63869065038759 -1.443402326311638 6.873764402984101 -3.8860754810843834
lfemur -23.751495920870408 -3.5018230004608584 -21.614798867659587
ltibia 40.959604633339474
lfoot -11.770491996728364 -10.71139388743888
ltoes -1.5494390239154843
rfemur -7.6380753301989905 -2.109073517608749 27.04960375529271
rtibia 96.09898865247399
rfoot 21.073189087599005 -13.16358962457693
rtoes 16.75529106259753
lowerback 16.497294635484977 1.0708685913804965 2.7687665359482985
upperback -0.08104018777185096 2.0672180383900507 1.1520152444739202
thorax -9.314926447008249 0.8915203793086182 -0.8248265632379427
lowerneck -18.957109094300737 -5.346237068944437 -1.6914257463877636
upperneck 15.2428908125415 -7.620285747627456 4.051617609656949
head 8.059281610746092 -3.300166925302631 0.6760169325131471
lclavicle -1.7288339579140553e-15 1.783627740629379e-15
lhumerus -61.08469310126232 -12.545202548319788 100.14099148708108
lradius 104.07300444904128
lwrist 33.45060031305122
lhand -25.856195481089546 0.7974909758354536
lfingers 7.12502
lthumb 0.684611519400963 30.77610395177544
rclavicle -1.7288339579140553e-15 1.783627740629379e-15
rhumerus -48.45430221697046 14.403489815674888 -101.75298744529049
rradius 104.67300786406638
rwrist -7.877918230301855
rhand -19.721584468400557 40.739094005457744
rfingers 7.12502
rthumb 6.608565532168662 10.86219468936517
20
root -0.6466339103870664 17.47490431414389 -12.685891039268492 -1.142003884183656 6.63226503288362 -2.5196102223006083
lfemur -22.37229655418441 -3.797762318587235 -23.29889628152626
ltibia 45.081003001255546
lfoot -17.15248826865023 -7.689818902664648
ltoes 2.0965073225176187
rfemur -13.30770288516755 -3.7861098897905276 23.90240920158558
rtibia 102.40698647708163
rfoot 20.9978891398462 -9.95280439973143
rtoes 15.041692191438207
lowerback 16.84359273138025 1.0303288417645033 0.9001372992779871
upperback 0.15045853836227496 1.6215396971318086 0.8064198388995274
thorax -9.309296525011272 0.7562996184504949 -0.03689989538283012
lowerneck -19.70270474383185 -5.254087752484087 -1.3674711134684912
upperneck 15.087891778435758 -7.553946082323309 3.969378362841346
head 8.117170200135464 -3.248607496699133 0.5904370412084002
lclavicle -1.7288340642170575e-15 1.7836277577894746e-15
lhumerus -56.90879589786926 -14.232599849969652 100.17699136519632
lradius 104.53000395767764
lwrist 34.90129571553891
lhand -24.961000402569145 0.056295737182686656
lfingers 7.12502
lthumb 1.5492695971520145 30.030406436413436
rclavicle -1.7288340642170575e-15 1.7836277577894746e-15
rhumerus -49.23730147087694 13.324791676259078 -101.86498716016362
rradius 101.65501299726837
rwrist -6.520573173385253
rhand -22.246571700123983 37.443715014804695
rfingers 7.12502
rthumb 4.170698307340958 7.504846518230566
21
root -0.5362463414730685 17.016655455242734 0.5158905170055377 1.575454286355435 4.134437791100668 0.02582999593269175
lfemur -20.032714471336384 0.665896774224995 -25.76617925464431
ltibia 50.4132372393369
lfoot -19.19843113723537 -0.7834462747076056
ltoes 2.147371983208023
rfemur -18.849527573486377 -4.300984272506156 21.89831352331608
rtibia 111.2933303915514
rfoot 14.17740670728627 -7.1197005029315035
rtoes 26.994212038236096
lowerback 17.193009350399006 1.7977886186601042 -1.8728386024941275
upperback -0.22546062112360532 2.0554482580598625 -0.16347418442387296
thorax -10.168172770559805 1.050268311756797 1.029219188064523
lowerneck -20.280342185986612 -4.8277790936809675 -1.5616357641820022
upperneck 13.18512287400434 -6.9092454766908435 4.4558311825337436
head 7.650642713454565 -2.9168677260941367 1.05395839558463
lclavicle -1.1878592125498494e-15 2.174401096841501e-15
lhumerus -48.89073025366392 -18.8417462610879 100.53759996471527
lradius 104.98699726815029
lwrist 33.29415559445243
lhand -25.67093911349191 2.194576620273728
lfingers 7.12502
lthumb 0.8636902177375215 32.16295008743728
rclavicle -1.1878592125498494e-15 2.174401096841501e-15
rhumerus -48.96628139543093 7.463949624763806 -100.9534510316308
rradius 100.07906963183947
rwrist -6.626664955474721
rhand -18.51719230183835 38.65978450168963
rfingers 7.12502
rthumb 7.770654421087864 8.393969932226245
22
root -0.5075586065675861 16.838266779093225 -0.25546169767722837 1.7537967371343464 3.6581382777763376 0.44170079360041203
lfemur -19.095453065440083 0.42742903859214904 -26.5781004378265
ltibia 51.19344671508427
lfoot -23.888271579571835 1.86442100687833
ltoes 1.2133063152436208
rfemur -26.163315810243056 -5.499900352010831 20.416639160985603
rtibia 116.75335068329824
rfoot 11.286583453343438 -6.233089488450532
rtoes 22.4969009346151
lowerback 17.578569738554798 1.7812047521965222 -2.9473726340917246
upperback -0.09172023492656023 1.827995333034575 -0.43640982180989685
thorax -10.38086166655597 0.9902163993207058 1.377743060748232
lowerneck -20.764392945342983 -4.889812085766554 -1.682580278933336
upperneck 12.597060775804097 -6.997893164139485 4.691066477766168
head 7.552118251949779 -2.9365771035899537 1.1499080782102737
lclavicle -2.1724342555955633e-15 1.4622666264852717e-15
lhumerus -45.06879072403414 -21.26868162416192 100.44434786385604
lradius 104.92986668342705
lwrist 32.431028707205755
lhand -25.40070092370719 1.50672635260747
lfingers 7.12502
lthumb 1.1247414521032806 31.46190647410899
rclavicle -2.1724342555955633e-15 1.4622666264852717e-15
rhumerus -50.28816733160529 5.614458058962736 -101.14650840052143
rradius 98.91070621824318
rwrist -7.032077351107914
rhand -18.07727756198867 38.65614229600873
rfingers 7.12502
rthumb 8.1954040948878 8.688819275782219
23
root -0.4775576758600639 16.875521290246972 -0.30577078639840316 2.562650052665234 3.4136329577341376 0.595355515573972
lfemur -15.08494738167318 0.60897110720103 -26.399775787751484
ltibia 50.72561456690951
lfoot -23.773991346864467 3.4488753189716954
ltoes -1.2757104770422103
rfemur -31.395949793805293 -5.582236908770637 20.56215545751506
rtibia 117.83666318324678
rfoot 9.87159171346822 -5.369496659372409
rtoes 18.035172423732323
lowerback 17.684508887348688 1.5367546058746755 -2.9611369209619083
upperback -0.1400449053526469 1.49755100889419 -0.2378648355410169
thorax -10.422484727530986 0.8458820036304293 1.8908908398408353
lowerneck -20.94775951444945 -4.5465780774143205 -1.7977240864376838
upperneck 12.422527819307284 -6.460668822299571 4.702455678044876
head 7.512380014353618 -2.692961575837794 1.218310285292525
lclavicle -1.1346604337766804e-15 2.216951886415358e-15
lhumerus -40.62450476973511 -22.536995998062935 100.22116050414503
lradius 106.26264794602928
lwrist 30.914995249349893
lhand -24.838559743577132 1.6304414215956775
lfingers 7.12502
lthumb 1.6675895799281848 31.588840864122105
rclavicle -1.1346604337766804e-15 2.216951886415358e-15
rhumerus -51.790570855995696 5.543285620996585 -100.81472414223825
rradius 100.17344013130966
rwrist -8.196880535900316
rhand -17.407844389746312 39.02139301139777
rfingers 7.12502
rthumb 8.841455084852702 8.985367706446702
24
root -0.4044812060479729 16.92181576127969 1.4210536202179007 2.9713907134194684 3.5687315413555587 0.7797191735360518
lfemur -11.43360067475673 -0.06956036506745389 -26.57381571517748
ltibia 49.38482822017101
lfoot -23.729447433606055 4.0128083386069955
ltoes -4.712013057530835
rfemur -36.82613723976284 -6.574224949962588 20.74592835117891
rtibia 119.8277645278972
rfoot 8.337473532000823 -5.270637900788797
rtoes 13.79994577591692
lowerback 17.697128192425815 1.129278182456529 -3.1995297564099525
upperback -0.21188435393325888 0.9037818472659833 -0.07562145074586568
thorax -10.466188052754717 0.5934559323912513 2.4508588223622323
lowerneck -21.202773894433257 -4.267882755885333 -1.7921326221377627
upperneck 12.40061892931552 -6.049576717688663 4.578179864866166
head 7.5104141644882665 -2.5091665922003923 1.208052757781371
lclavicle -8.642168197635601e-16 2.411260239606148e-15
lhumerus -37.720839159185566 -22.292833015607243 99.94328355473432
lradius 108.70982164050547
lwrist 30.868781159974436
lhand -24.746558742746473 1.1061261792021726
lfingers 7.12502
lthumb 1.7563563232666692 31.071420647250555
rclavicle -8.642168197635601e-16 2.4112602396061486e-15
rhumerus -53.23374408607117 6.077474327464904 -100.78749148537348
rradius 101.76807102235847
rwrist -9.64553543883835
rhand -16.835959581128833 39.21000043271631
rfingers 7.12502
rthumb 9.393271431186742 9.148121713778778
